<?xml version="1.0" encoding="UTF-8"?>
<svg width="371px" height="48px" viewBox="0 0 371 48" version="1.1" xmlns="http://www.w3.org/2000/svg" xmlns:xlink="http://www.w3.org/1999/xlink">
    <!-- Generator: Sketch 52.4 (67378) - http://www.bohemiancoding.com/sketch -->
    <title>ablegatio</title>
    <desc>Created with Sketch.</desc>
    <g id="Page-1" stroke="none" stroke-width="1" fill="none" fill-rule="evenodd">
        <g id="ablegatio">
            <path d="M83.1,20.5 C83.8,20.6 84.4,21.3 84.3,22 L84.3,40.4 C84.3,41.2 83.6,41.9 82.8,41.9 L77.6,41.9 C76.9,45.2 73.9,47.7 70.4,47.7 C66.9,47.7 63.9,45.2 63.2,41.9 L57.7,41.9 L38.2,41.9 C37.5,45.2 34.5,47.7 31,47.7 C27.5,47.7 24.5,45.2 23.8,41.9 L20.5,41.9 L16.3,41.9 C15.5,41.9 14.8,41.2 14.8,40.4 L14.8,33 L17.8,33 L17.8,38.8 L20.5,38.8 L23.8,38.8 C24.5,35.5 27.5,33 31,33 C34.5,33 37.5,35.5 38.2,38.8 L56.2,38.8 L56.2,8 L56.2,3.2 L17.9,3.2 L17.9,4.7 L14.9,4.7 L14.9,1.7 C14.9,0.9 15.6,0.2 16.4,0.2 L57.7,0.2 C58.5,0.2 59.2,0.9 59.2,1.7 L59.2,6.5 L65.9,6.5 C66.4,6.5 66.9,6.8 67.2,7.2 L75.3,19.2 L83.1,20.5 Z M31.1,44.8 C33.5,44.8 35.4,42.9 35.4,40.5 C35.4,38.1 33.5,36.2 31.1,36.2 C28.7,36.2 26.8,38.1 26.8,40.5 C26.8,42.9 28.7,44.8 31.1,44.8 Z M70.4,44.8 C72.8,44.8 74.7,42.9 74.7,40.5 C74.7,38.1 72.8,36.2 70.4,36.2 C68,36.2 66.1,38.1 66.1,40.5 C66.1,42.9 68,44.8 70.4,44.8 Z M81.3,38.9 L81.4,38.9 L81.4,23.2 L74.2,22 C73.8,22 73.4,21.7 73.2,21.4 L65.2,9.6 L59.3,9.6 L59.3,38.9 L63.2,38.9 C63.9,35.6 66.9,33.1 70.4,33.1 C73.9,33.1 76.9,35.6 77.6,38.9 L81.3,38.9 Z M17.4,9.4 C17.4,10.3 16.7,10.9 15.9,10.9 L1.5,10.9 C0.7,10.9 -3.55271368e-15,10.2 -3.55271368e-15,9.4 C-3.55271368e-15,8.6 0.7,7.9 1.5,7.9 L15.9,7.9 C16.7,7.9 17.4,8.6 17.4,9.4 Z M20,18.9 C20,19.7 19.3,20.4 18.5,20.4 L4.1,20.4 C3.3,20.4 2.6,19.7 2.6,18.9 C2.6,18.1 3.3,17.4 4.1,17.4 L18.5,17.4 C19.3,17.4 20,18.1 20,18.9 Z M22.6,28.3 C22.6,29.2 21.9,29.8 21.1,29.8 L6.7,29.8 C5.9,29.8 5.2,29.1 5.2,28.3 C5.2,27.5 5.9,26.8 6.7,26.8 L21.1,26.8 C21.9,26.8 22.6,27.5 22.6,28.3 Z" id="Combined-Shape" fill="#2586F2" fill-rule="nonzero"></path>
            <path d="M125.046,27.158 L120.327,16.238 L115.647,27.158 L125.046,27.158 Z M118.182,10.505 L122.628,10.505 L134.64,38 L129.57,38 L126.801,31.409 L113.892,31.409 L111.084,38 L106.17,38 L118.182,10.505 Z M149.259429,34.334 C150.065433,34.334 150.825925,34.1780016 151.540929,33.866 C152.255932,33.5539984 152.879926,33.1185028 153.412929,32.5595 C153.945931,32.0004972 154.368427,31.3115041 154.680429,30.4925 C154.99243,29.6734959 155.148429,28.7570051 155.148429,27.743 L155.148429,27.665 C155.148429,26.6769951 154.99243,25.7735041 154.680429,24.9545 C154.368427,24.1354959 153.945931,23.4400029 153.412929,22.868 C152.879926,22.2959971 152.255932,21.8540016 151.540929,21.542 C150.825925,21.2299984 150.065433,21.074 149.259429,21.074 C148.453425,21.074 147.686432,21.2299984 146.958429,21.542 C146.230425,21.8540016 145.593431,22.3024971 145.047429,22.8875 C144.501426,23.4725029 144.06593,24.167996 143.740929,24.974 C143.415927,25.780004 143.253429,26.6769951 143.253429,27.665 L143.253429,27.743 C143.253429,28.7310049 143.415927,29.6344959 143.740929,30.4535 C144.06593,31.2725041 144.501426,31.9679971 145.047429,32.54 C145.593431,33.1120029 146.230425,33.5539984 146.958429,33.866 C147.686432,34.1780016 148.453425,34.334 149.259429,34.334 Z M150.351429,38.429 C148.66142,38.429 147.257434,38.0650036 146.139429,37.337 C145.021423,36.6089964 144.098432,35.7640048 143.370429,34.802 L143.370429,38 L138.651429,38 L138.651429,9.53 L143.370429,9.53 L143.370429,20.84 C144.124432,19.7479945 145.060423,18.8315037 146.178429,18.0905 C147.296434,17.3494963 148.68742,16.979 150.351429,16.979 C151.573435,16.979 152.756423,17.2129977 153.900429,17.681 C155.044434,18.1490023 156.064924,18.8379955 156.961929,19.748 C157.858933,20.6580046 158.580426,21.7759934 159.126429,23.102 C159.672431,24.4280066 159.945429,25.9489914 159.945429,27.665 L159.945429,27.743 C159.945429,29.4590086 159.678931,30.9799934 159.145929,32.306 C158.612926,33.6320066 157.897933,34.7499955 157.000929,35.66 C156.103924,36.5700046 155.076934,37.2589977 153.919929,37.727 C152.762923,38.1950023 151.573435,38.429 150.351429,38.429 Z M164.931857,9.53 L169.650857,9.53 L169.650857,38 L164.931857,38 L164.931857,9.53 Z M189.808286,26.261 C189.730285,25.5069962 189.561287,24.7985033 189.301286,24.1355 C189.041284,23.4724967 188.690288,22.9005024 188.248286,22.4195 C187.806284,21.9384976 187.279789,21.5550014 186.668786,21.269 C186.057783,20.9829986 185.36229,20.84 184.582286,20.84 C183.126278,20.84 181.92379,21.340495 180.974786,22.3415 C180.025781,23.342505 179.447287,24.6489919 179.239286,26.261 L189.808286,26.261 Z M185.128286,38.468 C183.646278,38.468 182.261792,38.2080026 180.974786,37.688 C179.687779,37.1679974 178.56979,36.4400047 177.620786,35.504 C176.671781,34.5679953 175.924288,33.4435066 175.378286,32.1305 C174.832283,30.8174934 174.559286,29.3680079 174.559286,27.782 L174.559286,27.704 C174.559286,26.2219926 174.806283,24.8310065 175.300286,23.531 C175.794288,22.2309935 176.489781,21.0935049 177.386786,20.1185 C178.28379,19.1434951 179.34328,18.3765028 180.565286,17.8175 C181.787292,17.2584972 183.139278,16.979 184.621286,16.979 C186.259294,16.979 187.69578,17.277997 188.930786,17.876 C190.165792,18.474003 191.192782,19.2799949 192.011786,20.294 C192.83079,21.3080051 193.448284,22.4844933 193.864286,23.8235 C194.280288,25.1625067 194.488286,26.5729926 194.488286,28.055 C194.488286,28.263001 194.481786,28.4774989 194.468786,28.6985 C194.455786,28.9195011 194.436286,29.1469988 194.410286,29.381 L179.278286,29.381 C179.538287,31.0710085 180.20778,32.3644955 181.286786,33.2615 C182.365791,34.1585045 183.672278,34.607 185.206286,34.607 C186.376292,34.607 187.390281,34.3990021 188.248286,33.983 C189.10629,33.5669979 189.951282,32.956004 190.783286,32.15 L193.552286,34.607 C192.564281,35.7770059 191.387793,36.7129965 190.022786,37.415 C188.657779,38.1170035 187.026295,38.468 185.128286,38.468 Z M208.678714,32.384 C209.484718,32.384 210.258211,32.2475014 210.999214,31.9745 C211.740218,31.7014986 212.383712,31.3115025 212.929714,30.8045 C213.475717,30.2974975 213.911213,29.6995034 214.236214,29.0105 C214.561216,28.3214966 214.723714,27.5610042 214.723714,26.729 L214.723714,26.651 C214.723714,25.7929957 214.561216,25.0195034 214.236214,24.3305 C213.911213,23.6414966 213.475717,23.0435025 212.929714,22.5365 C212.383712,22.0294975 211.740218,21.6395014 210.999214,21.3665 C210.258211,21.0934986 209.484718,20.957 208.678714,20.957 C207.84671,20.957 207.079718,21.0934986 206.377714,21.3665 C205.675711,21.6395014 205.058217,22.0229975 204.525214,22.517 C203.992212,23.0110025 203.576216,23.6024966 203.277214,24.2915 C202.978213,24.9805034 202.828714,25.7539957 202.828714,26.612 L202.828714,26.69 C202.828714,27.5480043 202.984713,28.3214966 203.296714,29.0105 C203.608716,29.6995034 204.024712,30.2974975 204.544714,30.8045 C205.064717,31.3115025 205.682211,31.7014986 206.397214,31.9745 C207.112218,32.2475014 207.87271,32.384 208.678714,32.384 Z M208.288714,44.318 C204.856697,44.318 201.788728,43.4990082 199.084714,41.861 L200.839714,38.312 C201.93172,38.9880034 203.075708,39.5209981 204.271714,39.911 C205.46772,40.3010019 206.767707,40.496 208.171714,40.496 C210.277725,40.496 211.889709,39.9630053 213.007714,38.897 C214.12572,37.8309947 214.684714,36.2580104 214.684714,34.178 L214.684714,32.579 C213.82671,33.6970056 212.82572,34.6069965 211.681714,35.309 C210.537709,36.0110035 209.120723,36.362 207.430714,36.362 C206.208708,36.362 205.03872,36.1410022 203.920714,35.699 C202.802709,35.2569978 201.808219,34.6265041 200.937214,33.8075 C200.06621,32.9884959 199.370717,31.981006 198.850714,30.785 C198.330712,29.588994 198.070714,28.2370075 198.070714,26.729 L198.070714,26.651 C198.070714,25.1429925 198.330712,23.784506 198.850714,22.5755 C199.370717,21.366494 200.06621,20.3525041 200.937214,19.5335 C201.808219,18.7144959 202.809209,18.0840022 203.940214,17.642 C205.07122,17.1999978 206.234708,16.979 207.430714,16.979 C209.172723,16.979 210.609209,17.3234966 211.740214,18.0125 C212.87122,18.7015034 213.83971,19.5269952 214.645714,20.489 L214.645714,17.408 L219.364714,17.408 L219.364714,33.788 C219.364714,37.2200172 218.493723,39.8069913 216.751714,41.549 C215.81571,42.4850047 214.639221,43.1804977 213.222214,43.6355 C211.805207,44.0905023 210.160724,44.318 208.288714,44.318 Z M237.845143,29.381 C237.24714,29.1469988 236.538647,28.9520008 235.719643,28.796 C234.900639,28.6399992 234.036147,28.562 233.126143,28.562 C231.644135,28.562 230.487147,28.8479971 229.655143,29.42 C228.823139,29.9920029 228.407143,30.7719951 228.407143,31.76 L228.407143,31.838 C228.407143,32.8260049 228.790639,33.5799974 229.557643,34.1 C230.324647,34.6200026 231.267137,34.88 232.385143,34.88 C233.165147,34.88 233.88664,34.776001 234.549643,34.568 C235.212646,34.359999 235.79114,34.0675019 236.285143,33.6905 C236.779145,33.3134981 237.162642,32.8585027 237.435643,32.3255 C237.708644,31.7924973 237.845143,31.2010032 237.845143,30.551 L237.845143,29.381 Z M237.728143,38 L237.728143,35.465 C237.026139,36.2970042 236.129148,36.9989971 235.037143,37.571 C233.945137,38.1430029 232.619151,38.429 231.059143,38.429 C230.071138,38.429 229.135147,38.2925014 228.251143,38.0195 C227.367138,37.7464986 226.593646,37.3435027 225.930643,36.8105 C225.26764,36.2774973 224.734645,35.614504 224.331643,34.8215 C223.928641,34.028496 223.727143,33.1120052 223.727143,32.072 L223.727143,31.994 C223.727143,30.8499943 223.935141,29.8555042 224.351143,29.0105 C224.767145,28.1654958 225.345639,27.4635028 226.086643,26.9045 C226.827647,26.3454972 227.711638,25.9295014 228.738643,25.6565 C229.765648,25.3834986 230.877137,25.247 232.073143,25.247 C233.321149,25.247 234.380639,25.3249992 235.251643,25.481 C236.122647,25.6370008 236.961139,25.8449987 237.767143,26.105 L237.767143,25.715 C237.767143,24.2849929 237.331647,23.1930038 236.460643,22.439 C235.589639,21.6849962 234.335151,21.308 232.697143,21.308 C231.527137,21.308 230.487147,21.4249988 229.577143,21.659 C228.667138,21.8930012 227.744148,22.2049981 226.808143,22.595 L225.521143,18.812 C226.665149,18.2919974 227.835137,17.8760016 229.031143,17.564 C230.227149,17.2519984 231.670134,17.096 233.360143,17.096 C236.428158,17.096 238.703135,17.8564924 240.185143,19.3775 C241.66715,20.8985076 242.408143,23.0369862 242.408143,25.793 L242.408143,38 L237.728143,38 Z M254.804571,38.351 C253.946567,38.351 253.153575,38.247001 252.425571,38.039 C251.697568,37.830999 251.067074,37.4930023 250.534071,37.025 C250.001069,36.5569977 249.591573,35.9395038 249.305571,35.1725 C249.01957,34.4054962 248.876571,33.4500057 248.876571,32.306 L248.876571,21.464 L246.263571,21.464 L246.263571,17.408 L248.876571,17.408 L248.876571,11.753 L253.595571,11.753 L253.595571,17.408 L259.133571,17.408 L259.133571,21.464 L253.595571,21.464 L253.595571,31.565 C253.595571,32.4750046 253.816569,33.131498 254.258571,33.5345 C254.700574,33.937502 255.324567,34.139 256.130571,34.139 C257.144577,34.139 258.119567,33.9050023 259.055571,33.437 L259.055571,37.298 C258.457568,37.6360017 257.820575,37.8959991 257.144571,38.078 C256.468568,38.2600009 255.688576,38.351 254.804571,38.351 Z M264.042,17.408 L268.761,17.408 L268.761,38 L264.042,38 L264.042,17.408 Z M263.847,9.764 L268.917,9.764 L268.917,14.249 L263.847,14.249 L263.847,9.764 Z M284.667429,34.373 C285.629433,34.373 286.493925,34.1975018 287.260929,33.8465 C288.027932,33.4954982 288.684426,33.021003 289.230429,32.423 C289.776431,31.824997 290.192427,31.129504 290.478429,30.3365 C290.76443,29.543496 290.907429,28.7050044 290.907429,27.821 L290.907429,27.743 C290.907429,26.8329955 290.75143,25.975004 290.439429,25.169 C290.127427,24.362996 289.691931,23.661003 289.132929,23.063 C288.573926,22.464997 287.910932,21.9905018 287.143929,21.6395 C286.376925,21.2884982 285.525433,21.113 284.589429,21.113 C283.653424,21.113 282.801932,21.2884982 282.034929,21.6395 C281.267925,21.9905018 280.611431,22.4584971 280.065429,23.0435 C279.519426,23.6285029 279.10343,24.323996 278.817429,25.13 C278.531427,25.936004 278.388429,26.7809956 278.388429,27.665 L278.388429,27.743 C278.388429,28.6530046 278.544427,29.504496 278.856429,30.2975 C279.16843,31.090504 279.603926,31.7924969 280.162929,32.4035 C280.721931,33.0145031 281.384925,33.4954982 282.151929,33.8465 C282.918932,34.1975018 283.757424,34.373 284.667429,34.373 Z M284.589429,38.468 C283.029421,38.468 281.579935,38.1885028 280.240929,37.6295 C278.901922,37.0704972 277.744933,36.3100048 276.769929,35.348 C275.794924,34.3859952 275.034431,33.2550065 274.488429,31.955 C273.942426,30.6549935 273.669429,29.2770073 273.669429,27.821 L273.669429,27.743 C273.669429,26.2609926 273.948926,24.8700065 274.507929,23.57 C275.066931,22.2699935 275.833924,21.1325049 276.808929,20.1575 C277.783933,19.1824951 278.940922,18.4090029 280.279929,17.837 C281.618935,17.2649971 283.081421,16.979 284.667429,16.979 C286.253437,16.979 287.715922,17.2584972 289.054929,17.8175 C290.393935,18.3765028 291.550924,19.1434951 292.525929,20.1185 C293.500933,21.0935049 294.261426,22.2244936 294.807429,23.5115 C295.353431,24.7985064 295.626429,26.1829926 295.626429,27.665 L295.626429,27.743 C295.626429,29.1990073 295.346931,30.5769935 294.787929,31.877 C294.228926,33.1770065 293.461933,34.3144951 292.486929,35.2895 C291.511924,36.2645049 290.348435,37.0379971 288.996429,37.61 C287.644422,38.1820029 286.175437,38.468 284.589429,38.468 Z M325.099286,38.468 C323.097276,38.468 321.251294,38.1040036 319.561286,37.376 C317.871277,36.6479964 316.408792,35.6535063 315.173786,34.3925 C313.93878,33.1314937 312.970289,31.6430086 312.268286,29.927 C311.566282,28.2109914 311.215286,26.3780098 311.215286,24.428 L311.215286,24.35 C311.215286,22.3999903 311.559782,20.5735085 312.248786,18.8705 C312.937789,17.1674915 313.90628,15.6725064 315.154286,14.3855 C316.402292,13.0984936 317.884277,12.0845037 319.600286,11.3435 C321.316294,10.6024963 323.214275,10.232 325.294286,10.232 C326.542292,10.232 327.679781,10.335999 328.706786,10.544 C329.733791,10.752001 330.676281,11.0444981 331.534286,11.4215 C332.39229,11.7985019 333.185282,12.2469974 333.913286,12.767 C334.641289,13.2870026 335.330283,13.8589969 335.980286,14.483 L332.899286,18.032 C331.80728,17.0179949 330.650292,16.1990031 329.428286,15.575 C328.20628,14.9509969 326.815294,14.639 325.255286,14.639 C323.955279,14.639 322.752791,14.8924975 321.647786,15.3995 C320.54278,15.9065025 319.58729,16.5954956 318.781286,17.4665 C317.975282,18.3375044 317.351288,19.3579941 316.909286,20.528 C316.467284,21.6980059 316.246286,22.9459934 316.246286,24.272 L316.246286,24.35 C316.246286,25.6760066 316.467284,26.9304941 316.909286,28.1135 C317.351288,29.2965059 317.975282,30.3299956 318.781286,31.214 C319.58729,32.0980044 320.54278,32.7934975 321.647786,33.3005 C322.752791,33.8075025 323.955279,34.061 325.255286,34.061 C326.919294,34.061 328.34928,33.7425032 329.545286,33.1055 C330.741292,32.4684968 331.92428,31.6040055 333.094286,30.512 L336.175286,33.632 C335.473282,34.3860038 334.73879,35.0554971 333.971786,35.6405 C333.204782,36.2255029 332.37929,36.7324979 331.495286,37.1615 C330.611281,37.5905021 329.642791,37.9154989 328.589786,38.1365 C327.53678,38.3575011 326.373292,38.468 325.099286,38.468 Z M350.404714,34.373 C351.366719,34.373 352.231211,34.1975018 352.998214,33.8465 C353.765218,33.4954982 354.421712,33.021003 354.967714,32.423 C355.513717,31.824997 355.929713,31.129504 356.215714,30.3365 C356.501716,29.543496 356.644714,28.7050044 356.644714,27.821 L356.644714,27.743 C356.644714,26.8329955 356.488716,25.975004 356.176714,25.169 C355.864713,24.362996 355.429217,23.661003 354.870214,23.063 C354.311212,22.464997 353.648218,21.9905018 352.881214,21.6395 C352.114211,21.2884982 351.262719,21.113 350.326714,21.113 C349.39071,21.113 348.539218,21.2884982 347.772214,21.6395 C347.005211,21.9905018 346.348717,22.4584971 345.802714,23.0435 C345.256712,23.6285029 344.840716,24.323996 344.554714,25.13 C344.268713,25.936004 344.125714,26.7809956 344.125714,27.665 L344.125714,27.743 C344.125714,28.6530046 344.281713,29.504496 344.593714,30.2975 C344.905716,31.090504 345.341212,31.7924969 345.900214,32.4035 C346.459217,33.0145031 347.122211,33.4954982 347.889214,33.8465 C348.656218,34.1975018 349.49471,34.373 350.404714,34.373 Z M350.326714,38.468 C348.766707,38.468 347.317221,38.1885028 345.978214,37.6295 C344.639208,37.0704972 343.482219,36.3100048 342.507214,35.348 C341.532209,34.3859952 340.771717,33.2550065 340.225714,31.955 C339.679712,30.6549935 339.406714,29.2770073 339.406714,27.821 L339.406714,27.743 C339.406714,26.2609926 339.686212,24.8700065 340.245214,23.57 C340.804217,22.2699935 341.571209,21.1325049 342.546214,20.1575 C343.521219,19.1824951 344.678208,18.4090029 346.017214,17.837 C347.356221,17.2649971 348.818706,16.979 350.404714,16.979 C351.990722,16.979 353.453208,17.2584972 354.792214,17.8175 C356.131221,18.3765028 357.288209,19.1434951 358.263214,20.1185 C359.238219,21.0935049 359.998712,22.2244936 360.544714,23.5115 C361.090717,24.7985064 361.363714,26.1829926 361.363714,27.665 L361.363714,27.743 C361.363714,29.1990073 361.084217,30.5769935 360.525214,31.877 C359.966212,33.1770065 359.199219,34.3144951 358.224214,35.2895 C357.249209,36.2645049 356.085721,37.0379971 354.733714,37.61 C353.381708,38.1820029 351.912722,38.468 350.326714,38.468 Z M365.726143,32.657 L370.913143,32.657 L370.913143,38 L365.726143,38 L365.726143,32.657 Z" id="Ablegatio-Co." fill="#020202"></path>
        </g>
    </g>
</svg>